<svg width="62" height="63" viewBox="0 0 62 63" fill="none" xmlns="http://www.w3.org/2000/svg">
<path fill-rule="evenodd" clip-rule="evenodd" d="M16.2159 9.97509C14.8302 10.6484 13.8711 11.8368 13.3369 13.5426C13.1103 14.2659 13.101 14.3676 13.1018 16.1027C13.103 18.793 13.3841 20.2051 14.0594 20.914C14.4714 21.3464 14.55 21.2876 15.9222 19.5201C16.985 18.1509 17.2224 17.7903 17.4301 17.23C18.0129 15.658 19.0671 13.8426 20.1834 12.489C20.4692 12.1423 21.1365 11.4406 21.6661 10.9295L22.6289 10.0005L20.3424 9.85087C19.0848 9.7686 17.8056 9.68338 17.4996 9.66153C16.9795 9.6243 16.8962 9.64464 16.2159 9.97509ZM25.9292 9.70775C25.3405 9.76574 25.4137 9.72902 24.3485 10.5005C23.4173 11.1749 22.0668 12.4312 21.3513 13.2884C20.228 14.6344 19.151 16.5308 18.6076 18.1197C18.3498 18.8733 18.3316 19.0096 18.2808 20.5541L18.2271 22.1901L15.1191 23.5474C13.4097 24.2938 11.9782 24.9379 11.938 24.9787C11.7668 25.1526 11.2568 26.2703 11.1316 26.7459C10.9252 27.5294 10.9591 28.2961 11.2505 29.4351C11.7153 31.2518 12.4759 32.3637 13.6967 33.0105C14.2024 33.2785 15.3762 33.6223 16.0675 33.7046L16.5607 33.7635L16.5382 31.1897L16.5155 28.6159L16.002 28.4125C15.3309 28.1467 14.9322 27.7327 14.9326 27.3023C14.9331 26.8054 15.1855 26.4932 15.844 26.1749C16.3874 25.9122 16.4838 25.8934 17.2857 25.8934C18.0876 25.8934 18.184 25.9122 18.7274 26.1749C20.024 26.8017 19.9488 27.8661 18.5694 28.4125L18.0559 28.6159L18.0333 31.2163L18.0107 33.8166L19.748 33.8775C20.7035 33.911 22.2522 33.9246 23.1896 33.9077L24.894 33.8772L25.3492 36.5664C25.8891 39.7554 27.4197 48.5027 27.4852 48.7732C27.53 48.9581 27.5574 48.9623 28.7247 48.9623H29.9183L29.6921 48.6052C28.6537 46.9666 27.9969 44.8826 27.8843 42.8694C27.535 36.6257 32.196 31.1032 38.5636 30.2161C39.0312 30.151 39.8255 30.1288 40.727 30.1557L42.1517 30.1981L42.0239 30.0206C41.7518 29.6427 41.3404 28.8984 41.1594 28.4566C40.9785 28.0152 40.9372 27.977 40.2444 27.6114C39.1224 27.0192 38.417 26.4934 37.4397 25.5208C35.5411 23.6315 34.1951 21.3404 33.1164 18.1617C32.8654 17.4221 32.5253 16.2119 32.3605 15.4724C31.9089 13.445 31.9029 13.2116 32.3344 14.4639C33.8394 18.8314 35.6974 21.9999 38.1276 24.3428C39.0937 25.2744 39.9079 25.8759 40.9056 26.3952L41.5047 26.707L41.8189 26.3492C42.4386 25.6433 42.9951 24.2439 43.2866 22.6578C43.7773 19.9896 43.918 16.0581 43.5679 14.8001C42.8161 12.0979 40.4745 10.7345 35.7709 10.2601C35.1119 10.1936 34.2647 10.1383 33.8881 10.1372C33.5116 10.1361 32.6258 10.0614 31.9198 9.97114C29.4457 9.65489 27.3865 9.56438 25.9292 9.70775ZM22.3118 18.6029C23.1453 19.4674 22.7891 21.9015 21.8289 21.9015C20.8626 21.9015 20.471 19.5669 21.2847 18.6568C21.6146 18.2878 21.989 18.2682 22.3118 18.6029ZM27.8732 18.939C28.5308 19.6251 28.5145 21.338 27.8435 22.0393C27.4148 22.4874 26.7854 22.1372 26.5358 21.3117C26.1789 20.1318 26.6429 18.7079 27.3841 18.7079C27.5652 18.7079 27.7232 18.7826 27.8732 18.939ZM39.6647 31.8678C38.704 31.9747 37.989 32.1158 37.2685 32.341C33.5172 33.513 30.7171 36.6532 30.0416 40.4456C29.8718 41.3987 29.8716 43.1008 30.0411 44.0557C31.1448 50.2703 37.7217 54.1097 43.8357 52.1084C46.8134 51.1336 49.3629 48.7184 50.3969 45.8928C50.8997 44.5188 51.0004 43.9088 51 42.2391C50.9997 40.8882 50.9733 40.5804 50.7983 39.8907C49.7656 35.8213 46.5664 32.8093 42.4461 32.0272C41.8098 31.9064 40.1649 31.8121 39.6647 31.8678ZM45.1351 36.1504C46.3506 36.3658 46.5967 36.5292 46.5967 37.1209C46.5967 37.4469 46.8448 37.0773 41.0987 45.3105C40.0326 46.838 39.0843 48.1554 38.9913 48.238C38.8983 48.3207 38.673 48.4079 38.4905 48.432C38.218 48.4678 38.1104 48.4358 37.8886 48.2524C37.6303 48.0391 34.791 44.0767 34.499 43.5223C34.4219 43.3758 34.3588 43.1735 34.3588 43.0728C34.3588 42.9069 34.3932 42.8935 34.7225 42.9302C34.9225 42.9525 35.9454 43.2842 36.9956 43.6672C38.1103 44.0737 38.9365 44.3325 38.981 44.2888C39.0229 44.2477 39.8495 42.5701 40.8179 40.5607C41.7905 38.5427 42.6831 36.7995 42.8119 36.6664C43.1608 36.3057 43.7277 36.0436 44.1938 36.0274C44.3078 36.0235 44.7314 36.0788 45.1351 36.1504Z" fill="#B8B8B8"/>
<circle cx="41" cy="42" r="7" fill="white"/>
<path fill-rule="evenodd" clip-rule="evenodd" d="M40.3706 35.0174C37.9345 35.2519 35.7983 36.7193 34.7324 38.8902C34.2932 39.7848 34.0874 40.5491 34.0153 41.5527C33.9494 42.4703 34.0983 43.5215 34.4183 44.3971C34.5658 44.8008 34.9217 45.5023 35.1594 45.8579C35.6779 46.6336 36.3509 47.3096 37.1173 47.8247C38.5363 48.7784 40.3206 49.1787 42.0262 48.9259C43.9983 48.6336 45.7327 47.5212 46.8629 45.8239C47.0818 45.4952 47.4411 44.782 47.5817 44.3971C47.9017 43.5215 48.0506 42.4703 47.9847 41.5527C47.9472 41.0312 47.8975 40.7213 47.7719 40.2278C47.6488 39.7442 47.5236 39.413 47.2664 38.8902C46.9004 38.1465 46.4656 37.5526 45.8532 36.9601C45.2826 36.4082 44.7953 36.0659 44.0786 35.7139C43.3952 35.3782 42.7641 35.1797 42.0262 35.0684C41.6123 35.006 40.7617 34.9798 40.3706 35.0174ZM38.4858 38.2094C38.5619 38.2237 38.7913 38.4392 39.7891 39.4339L41 40.641L42.2109 39.4325C43.3804 38.2653 43.4261 38.2234 43.545 38.206C43.6159 38.1957 43.703 38.2011 43.7503 38.2188C43.8688 38.2632 44.7419 39.1413 44.7788 39.2533C44.7955 39.3038 44.8002 39.3939 44.7897 39.4589C44.7721 39.5672 44.6927 39.6532 43.5635 40.7861L42.356 41.9976L43.5635 43.2091C44.6927 44.3421 44.7721 44.428 44.7897 44.5363C44.8002 44.6014 44.7955 44.6915 44.7788 44.7419C44.7419 44.8539 43.8688 45.7321 43.7503 45.7764C43.703 45.7941 43.6159 45.7995 43.545 45.7892C43.4261 45.7719 43.3804 45.7299 42.2109 44.5627L41 43.3542L39.7891 44.5627C38.6196 45.7299 38.5739 45.7719 38.455 45.7892C38.3841 45.7995 38.297 45.7941 38.2497 45.7764C38.1312 45.7321 37.2581 44.8539 37.2212 44.7419C37.2045 44.6915 37.1998 44.6014 37.2103 44.5363C37.2279 44.428 37.3073 44.3421 38.4365 43.2091L39.644 41.9976L38.4365 40.7861C37.3073 39.6532 37.2279 39.5672 37.2103 39.4589C37.1778 39.2581 37.2203 39.1939 37.7092 38.7064C38.2291 38.1878 38.2612 38.1674 38.4858 38.2094Z" fill="#BD1E2D"/>
</svg>
