<svg width="233" height="208" viewBox="0 0 233 208" fill="none" xmlns="http://www.w3.org/2000/svg">
<g opacity="0.2">
<circle cx="42.0308" cy="203.397" r="3.5" transform="rotate(-103.749 42.0308 203.397)" fill="#025928"/>
<circle cx="59.0054" cy="199.244" r="3.5" transform="rotate(-103.749 59.0054 199.244)" fill="#025928"/>
<circle cx="75.981" cy="195.09" r="3.5" transform="rotate(-103.749 75.981 195.09)" fill="#025928"/>
<circle cx="92.9556" cy="190.937" r="3.5" transform="rotate(-103.749 92.9556 190.937)" fill="#025928"/>
<circle cx="109.93" cy="186.784" r="3.5" transform="rotate(-103.749 109.93 186.784)" fill="#025928"/>
<circle cx="126.906" cy="182.63" r="3.5" transform="rotate(-103.749 126.906 182.63)" fill="#025928"/>
<circle cx="143.88" cy="178.476" r="3.5" transform="rotate(-103.749 143.88 178.476)" fill="#025928"/>
<circle cx="160.856" cy="174.323" r="3.5" transform="rotate(-103.749 160.856 174.323)" fill="#025928"/>
<circle cx="177.831" cy="170.17" r="3.5" transform="rotate(-103.749 177.831 170.17)" fill="#025928"/>
<circle cx="194.805" cy="166.016" r="3.5" transform="rotate(-103.749 194.805 166.016)" fill="#025928"/>
<circle cx="211.781" cy="161.863" r="3.5" transform="rotate(-103.749 211.781 161.863)" fill="#025928"/>
<circle cx="228.755" cy="157.709" r="3.5" transform="rotate(-103.749 228.755 157.709)" fill="#025928"/>
<circle cx="37.8774" cy="186.422" r="3.5" transform="rotate(-103.749 37.8774 186.422)" fill="#025928"/>
<circle cx="54.8521" cy="182.269" r="3.5" transform="rotate(-103.749 54.8521 182.269)" fill="#025928"/>
<circle cx="71.8276" cy="178.116" r="3.5" transform="rotate(-103.749 71.8276 178.116)" fill="#025928"/>
<circle cx="88.8022" cy="173.962" r="3.5" transform="rotate(-103.749 88.8022 173.962)" fill="#025928"/>
<circle cx="105.777" cy="169.808" r="3.5" transform="rotate(-103.749 105.777 169.808)" fill="#025928"/>
<circle cx="122.752" cy="165.655" r="3.5" transform="rotate(-103.749 122.752 165.655)" fill="#025928"/>
<circle cx="139.727" cy="161.502" r="3.5" transform="rotate(-103.749 139.727 161.502)" fill="#025928"/>
<circle cx="156.703" cy="157.348" r="3.5" transform="rotate(-103.749 156.703 157.348)" fill="#025928"/>
<circle cx="173.677" cy="153.195" r="3.5" transform="rotate(-103.749 173.677 153.195)" fill="#025928"/>
<circle cx="190.652" cy="149.041" r="3.5" transform="rotate(-103.749 190.652 149.041)" fill="#025928"/>
<circle cx="207.627" cy="144.888" r="3.5" transform="rotate(-103.749 207.627 144.888)" fill="#025928"/>
<circle cx="224.602" cy="140.735" r="3.5" transform="rotate(-103.749 224.602 140.735)" fill="#025928"/>
<circle cx="33.7241" cy="169.447" r="3.5" transform="rotate(-103.749 33.7241 169.447)" fill="#025928"/>
<circle cx="50.6987" cy="165.294" r="3.5" transform="rotate(-103.749 50.6987 165.294)" fill="#025928"/>
<circle cx="67.6743" cy="161.141" r="3.5" transform="rotate(-103.749 67.6743 161.141)" fill="#025928"/>
<circle cx="84.6489" cy="156.987" r="3.5" transform="rotate(-103.749 84.6489 156.987)" fill="#025928"/>
<circle cx="101.624" cy="152.833" r="3.5" transform="rotate(-103.749 101.624 152.833)" fill="#025928"/>
<circle cx="118.599" cy="148.68" r="3.5" transform="rotate(-103.749 118.599 148.68)" fill="#025928"/>
<circle cx="135.574" cy="144.527" r="3.5" transform="rotate(-103.749 135.574 144.527)" fill="#025928"/>
<circle cx="152.548" cy="140.373" r="3.5" transform="rotate(-103.749 152.548 140.373)" fill="#025928"/>
<circle cx="169.524" cy="136.22" r="3.5" transform="rotate(-103.749 169.524 136.22)" fill="#025928"/>
<circle cx="186.499" cy="132.066" r="3.5" transform="rotate(-103.749 186.499 132.066)" fill="#025928"/>
<circle cx="203.474" cy="127.913" r="3.5" transform="rotate(-103.749 203.474 127.913)" fill="#025928"/>
<circle cx="220.449" cy="123.76" r="3.5" transform="rotate(-103.749 220.449 123.76)" fill="#025928"/>
<circle cx="29.5708" cy="152.472" r="3.5" transform="rotate(-103.749 29.5708 152.472)" fill="#025928"/>
<circle cx="46.5454" cy="148.319" r="3.5" transform="rotate(-103.749 46.5454 148.319)" fill="#025928"/>
<circle cx="63.52" cy="144.165" r="3.5" transform="rotate(-103.749 63.52 144.165)" fill="#025928"/>
<circle cx="80.4956" cy="140.012" r="3.5" transform="rotate(-103.749 80.4956 140.012)" fill="#025928"/>
<circle cx="97.4702" cy="135.858" r="3.5" transform="rotate(-103.749 97.4702 135.858)" fill="#025928"/>
<circle cx="114.446" cy="131.705" r="3.5" transform="rotate(-103.749 114.446 131.705)" fill="#025928"/>
<circle cx="131.42" cy="127.552" r="3.5" transform="rotate(-103.749 131.42 127.552)" fill="#025928"/>
<circle cx="148.395" cy="123.398" r="3.5" transform="rotate(-103.749 148.395 123.398)" fill="#025928"/>
<circle cx="165.371" cy="119.245" r="3.5" transform="rotate(-103.749 165.371 119.245)" fill="#025928"/>
<circle cx="182.345" cy="115.091" r="3.5" transform="rotate(-103.749 182.345 115.091)" fill="#025928"/>
<circle cx="199.321" cy="110.938" r="3.5" transform="rotate(-103.749 199.321 110.938)" fill="#025928"/>
<circle cx="216.295" cy="106.785" r="3.5" transform="rotate(-103.749 216.295 106.785)" fill="#025928"/>
<circle cx="25.4175" cy="135.497" r="3.5" transform="rotate(-103.749 25.4175 135.497)" fill="#025928"/>
<circle cx="42.3921" cy="131.344" r="3.5" transform="rotate(-103.749 42.3921 131.344)" fill="#025928"/>
<circle cx="59.3667" cy="127.19" r="3.5" transform="rotate(-103.749 59.3667 127.19)" fill="#025928"/>
<circle cx="76.3423" cy="123.037" r="3.5" transform="rotate(-103.749 76.3423 123.037)" fill="#025928"/>
<circle cx="93.3169" cy="118.884" r="3.5" transform="rotate(-103.749 93.3169 118.884)" fill="#025928"/>
<circle cx="110.292" cy="114.73" r="3.5" transform="rotate(-103.749 110.292 114.73)" fill="#025928"/>
<circle cx="127.267" cy="110.577" r="3.5" transform="rotate(-103.749 127.267 110.577)" fill="#025928"/>
<circle cx="144.242" cy="106.423" r="3.5" transform="rotate(-103.749 144.242 106.423)" fill="#025928"/>
<circle cx="161.217" cy="102.27" r="3.5" transform="rotate(-103.749 161.217 102.27)" fill="#025928"/>
<circle cx="178.192" cy="98.1166" r="3.5" transform="rotate(-103.749 178.192 98.1166)" fill="#025928"/>
<circle cx="195.167" cy="93.9628" r="3.5" transform="rotate(-103.749 195.167 93.9628)" fill="#025928"/>
<circle cx="212.142" cy="89.8095" r="3.5" transform="rotate(-103.749 212.142 89.8095)" fill="#025928"/>
<circle cx="21.2632" cy="118.522" r="3.5" transform="rotate(-103.749 21.2632 118.522)" fill="#025928"/>
<circle cx="38.2388" cy="114.369" r="3.5" transform="rotate(-103.749 38.2388 114.369)" fill="#025928"/>
<circle cx="55.2134" cy="110.215" r="3.5" transform="rotate(-103.749 55.2134 110.215)" fill="#025928"/>
<circle cx="72.189" cy="106.062" r="3.5" transform="rotate(-103.749 72.189 106.062)" fill="#025928"/>
<circle cx="89.1636" cy="101.909" r="3.5" transform="rotate(-103.749 89.1636 101.909)" fill="#025928"/>
<circle cx="106.138" cy="97.7553" r="3.5" transform="rotate(-103.749 106.138 97.7553)" fill="#025928"/>
<circle cx="123.114" cy="93.6015" r="3.5" transform="rotate(-103.749 123.114 93.6015)" fill="#025928"/>
<circle cx="140.088" cy="89.4481" r="3.5" transform="rotate(-103.749 140.088 89.4481)" fill="#025928"/>
<circle cx="157.064" cy="85.2948" r="3.5" transform="rotate(-103.749 157.064 85.2948)" fill="#025928"/>
<circle cx="174.039" cy="81.1415" r="3.5" transform="rotate(-103.749 174.039 81.1415)" fill="#025928"/>
<circle cx="191.013" cy="76.9882" r="3.5" transform="rotate(-103.749 191.013 76.9882)" fill="#025928"/>
<circle cx="207.989" cy="72.8349" r="3.5" transform="rotate(-103.749 207.989 72.8349)" fill="#025928"/>
<circle cx="17.1099" cy="101.547" r="3.5" transform="rotate(-103.749 17.1099 101.547)" fill="#025928"/>
<circle cx="34.0855" cy="97.3939" r="3.5" transform="rotate(-103.749 34.0855 97.3939)" fill="#025928"/>
<circle cx="51.0601" cy="93.2406" r="3.5" transform="rotate(-103.749 51.0601 93.2406)" fill="#025928"/>
<circle cx="68.0356" cy="89.0868" r="3.5" transform="rotate(-103.749 68.0356 89.0868)" fill="#025928"/>
<circle cx="85.0103" cy="84.9335" r="3.5" transform="rotate(-103.749 85.0103 84.9335)" fill="#025928"/>
<circle cx="101.985" cy="80.7802" r="3.5" transform="rotate(-103.749 101.985 80.7802)" fill="#025928"/>
<circle cx="118.96" cy="76.6268" r="3.5" transform="rotate(-103.749 118.96 76.6268)" fill="#025928"/>
<circle cx="135.935" cy="72.4735" r="3.5" transform="rotate(-103.749 135.935 72.4735)" fill="#025928"/>
<circle cx="152.911" cy="68.3197" r="3.5" transform="rotate(-103.749 152.911 68.3197)" fill="#025928"/>
<circle cx="169.885" cy="64.1664" r="3.5" transform="rotate(-103.749 169.885 64.1664)" fill="#025928"/>
<circle cx="186.86" cy="60.0131" r="3.5" transform="rotate(-103.749 186.86 60.0131)" fill="#025928"/>
<circle cx="203.834" cy="55.8598" r="3.5" transform="rotate(-103.749 203.834 55.8598)" fill="#025928"/>
<circle cx="12.9565" cy="84.5722" r="3.5" transform="rotate(-103.749 12.9565 84.5722)" fill="#025928"/>
<circle cx="29.9321" cy="80.4188" r="3.5" transform="rotate(-103.749 29.9321 80.4188)" fill="#025928"/>
<circle cx="46.9067" cy="76.2655" r="3.5" transform="rotate(-103.749 46.9067 76.2655)" fill="#025928"/>
<circle cx="63.8814" cy="72.1122" r="3.5" transform="rotate(-103.749 63.8814 72.1122)" fill="#025928"/>
<circle cx="80.8569" cy="67.9589" r="3.5" transform="rotate(-103.749 80.8569 67.9589)" fill="#025928"/>
<circle cx="97.8315" cy="63.8051" r="3.5" transform="rotate(-103.749 97.8315 63.8051)" fill="#025928"/>
<circle cx="114.807" cy="59.6517" r="3.5" transform="rotate(-103.749 114.807 59.6517)" fill="#025928"/>
<circle cx="131.782" cy="55.4984" r="3.5" transform="rotate(-103.749 131.782 55.4984)" fill="#025928"/>
<circle cx="148.756" cy="51.3451" r="3.5" transform="rotate(-103.749 148.756 51.3451)" fill="#025928"/>
<circle cx="165.732" cy="47.1913" r="3.5" transform="rotate(-103.749 165.732 47.1913)" fill="#025928"/>
<circle cx="182.707" cy="43.038" r="3.5" transform="rotate(-103.749 182.707 43.038)" fill="#025928"/>
<circle cx="199.681" cy="38.8847" r="3.5" transform="rotate(-103.749 199.681 38.8847)" fill="#025928"/>
<circle cx="8.80323" cy="67.5971" r="3.5" transform="rotate(-103.749 8.80323 67.5971)" fill="#025928"/>
<circle cx="25.7788" cy="63.4437" r="3.5" transform="rotate(-103.749 25.7788 63.4437)" fill="#025928"/>
<circle cx="42.7534" cy="59.2904" r="3.5" transform="rotate(-103.749 42.7534 59.2904)" fill="#025928"/>
<circle cx="59.728" cy="55.1371" r="3.5" transform="rotate(-103.749 59.728 55.1371)" fill="#025928"/>
<circle cx="76.7036" cy="50.9838" r="3.5" transform="rotate(-103.749 76.7036 50.9838)" fill="#025928"/>
<circle cx="93.6782" cy="46.83" r="3.5" transform="rotate(-103.749 93.6782 46.83)" fill="#025928"/>
<circle cx="110.654" cy="42.6767" r="3.5" transform="rotate(-103.749 110.654 42.6767)" fill="#025928"/>
<circle cx="127.628" cy="38.5233" r="3.5" transform="rotate(-103.749 127.628 38.5233)" fill="#025928"/>
<circle cx="144.603" cy="34.37" r="3.5" transform="rotate(-103.749 144.603 34.37)" fill="#025928"/>
<circle cx="161.579" cy="30.2162" r="3.5" transform="rotate(-103.749 161.579 30.2162)" fill="#025928"/>
<circle cx="178.553" cy="26.0629" r="3.5" transform="rotate(-103.749 178.553 26.0629)" fill="#025928"/>
<circle cx="195.528" cy="21.9096" r="3.5" transform="rotate(-103.749 195.528 21.9096)" fill="#025928"/>
<circle cx="4.64991" cy="50.6225" r="3.5" transform="rotate(-103.749 4.64991 50.6225)" fill="#025928"/>
<circle cx="21.6255" cy="46.4691" r="3.5" transform="rotate(-103.749 21.6255 46.4691)" fill="#025928"/>
<circle cx="38.6001" cy="42.3153" r="3.5" transform="rotate(-103.749 38.6001 42.3153)" fill="#025928"/>
<circle cx="55.5747" cy="38.162" r="3.5" transform="rotate(-103.749 55.5747 38.162)" fill="#025928"/>
<circle cx="72.5503" cy="34.0087" r="3.5" transform="rotate(-103.749 72.5503 34.0087)" fill="#025928"/>
<circle cx="89.5249" cy="29.8554" r="3.5" transform="rotate(-103.749 89.5249 29.8554)" fill="#025928"/>
<circle cx="106.5" cy="25.7016" r="3.5" transform="rotate(-103.749 106.5 25.7016)" fill="#025928"/>
<circle cx="123.475" cy="21.5482" r="3.5" transform="rotate(-103.749 123.475 21.5482)" fill="#025928"/>
<circle cx="140.45" cy="17.3949" r="3.5" transform="rotate(-103.749 140.45 17.3949)" fill="#025928"/>
<circle cx="157.424" cy="13.2416" r="3.5" transform="rotate(-103.749 157.424 13.2416)" fill="#025928"/>
<circle cx="174.4" cy="9.08827" r="3.5" transform="rotate(-103.749 174.4 9.08827)" fill="#025928"/>
<circle cx="191.375" cy="4.93446" r="3.5" transform="rotate(-103.749 191.375 4.93446)" fill="#025928"/>
</g>
</svg>
