<svg width="255" height="243" viewBox="0 0 255 243" fill="none" xmlns="http://www.w3.org/2000/svg">
<g opacity="0.2">
<circle cx="4.78736" cy="140.607" r="3.5" transform="rotate(-59.7168 4.78736 140.607)" fill="#025928"/>
<circle cx="19.8782" cy="149.419" r="3.5" transform="rotate(-59.7168 19.8782 149.419)" fill="#025928"/>
<circle cx="34.969" cy="158.232" r="3.5" transform="rotate(-59.7168 34.969 158.232)" fill="#025928"/>
<circle cx="50.0608" cy="167.045" r="3.5" transform="rotate(-59.7168 50.0608 167.045)" fill="#025928"/>
<circle cx="65.1516" cy="175.857" r="3.5" transform="rotate(-59.7168 65.1516 175.857)" fill="#025928"/>
<circle cx="80.2424" cy="184.67" r="3.5" transform="rotate(-59.7168 80.2424 184.67)" fill="#025928"/>
<circle cx="95.3342" cy="193.482" r="3.5" transform="rotate(-59.7168 95.3342 193.482)" fill="#025928"/>
<circle cx="110.425" cy="202.295" r="3.5" transform="rotate(-59.7168 110.425 202.295)" fill="#025928"/>
<circle cx="125.516" cy="211.107" r="3.5" transform="rotate(-59.7168 125.516 211.107)" fill="#025928"/>
<circle cx="140.607" cy="219.92" r="3.5" transform="rotate(-59.7168 140.607 219.92)" fill="#025928"/>
<circle cx="155.698" cy="228.732" r="3.5" transform="rotate(-59.7168 155.698 228.732)" fill="#025928"/>
<circle cx="170.789" cy="237.545" r="3.5" transform="rotate(-59.7168 170.789 237.545)" fill="#025928"/>
<circle cx="13.5999" cy="125.516" r="3.5" transform="rotate(-59.7168 13.5999 125.516)" fill="#025928"/>
<circle cx="28.6907" cy="134.328" r="3.5" transform="rotate(-59.7168 28.6907 134.328)" fill="#025928"/>
<circle cx="43.7815" cy="143.141" r="3.5" transform="rotate(-59.7168 43.7815 143.141)" fill="#025928"/>
<circle cx="58.8733" cy="151.953" r="3.5" transform="rotate(-59.7168 58.8733 151.953)" fill="#025928"/>
<circle cx="73.9641" cy="160.766" r="3.5" transform="rotate(-59.7168 73.9641 160.766)" fill="#025928"/>
<circle cx="89.0549" cy="169.578" r="3.5" transform="rotate(-59.7168 89.0549 169.578)" fill="#025928"/>
<circle cx="104.147" cy="178.391" r="3.5" transform="rotate(-59.7168 104.147 178.391)" fill="#025928"/>
<circle cx="119.238" cy="187.203" r="3.5" transform="rotate(-59.7168 119.238 187.203)" fill="#025928"/>
<circle cx="134.328" cy="196.016" r="3.5" transform="rotate(-59.7168 134.328 196.016)" fill="#025928"/>
<circle cx="149.419" cy="204.828" r="3.5" transform="rotate(-59.7168 149.419 204.828)" fill="#025928"/>
<circle cx="164.511" cy="213.641" r="3.5" transform="rotate(-59.7168 164.511 213.641)" fill="#025928"/>
<circle cx="179.602" cy="222.454" r="3.5" transform="rotate(-59.7168 179.602 222.454)" fill="#025928"/>
<circle cx="22.4124" cy="110.425" r="3.5" transform="rotate(-59.7168 22.4124 110.425)" fill="#025928"/>
<circle cx="37.5032" cy="119.237" r="3.5" transform="rotate(-59.7168 37.5032 119.237)" fill="#025928"/>
<circle cx="52.595" cy="128.05" r="3.5" transform="rotate(-59.7168 52.595 128.05)" fill="#025928"/>
<circle cx="67.6858" cy="136.863" r="3.5" transform="rotate(-59.7168 67.6858 136.863)" fill="#025928"/>
<circle cx="82.7766" cy="145.675" r="3.5" transform="rotate(-59.7168 82.7766 145.675)" fill="#025928"/>
<circle cx="97.8674" cy="154.488" r="3.5" transform="rotate(-59.7168 97.8674 154.488)" fill="#025928"/>
<circle cx="112.959" cy="163.3" r="3.5" transform="rotate(-59.7168 112.959 163.3)" fill="#025928"/>
<circle cx="128.05" cy="172.113" r="3.5" transform="rotate(-59.7168 128.05 172.113)" fill="#025928"/>
<circle cx="143.141" cy="180.925" r="3.5" transform="rotate(-59.7168 143.141 180.925)" fill="#025928"/>
<circle cx="158.232" cy="189.738" r="3.5" transform="rotate(-59.7168 158.232 189.738)" fill="#025928"/>
<circle cx="173.324" cy="198.55" r="3.5" transform="rotate(-59.7168 173.324 198.55)" fill="#025928"/>
<circle cx="188.414" cy="207.363" r="3.5" transform="rotate(-59.7168 188.414 207.363)" fill="#025928"/>
<circle cx="31.2249" cy="95.3339" r="3.5" transform="rotate(-59.7168 31.2249 95.3339)" fill="#025928"/>
<circle cx="46.3167" cy="104.146" r="3.5" transform="rotate(-59.7168 46.3167 104.146)" fill="#025928"/>
<circle cx="61.4075" cy="112.959" r="3.5" transform="rotate(-59.7168 61.4075 112.959)" fill="#025928"/>
<circle cx="76.4983" cy="121.771" r="3.5" transform="rotate(-59.7168 76.4983 121.771)" fill="#025928"/>
<circle cx="91.5891" cy="130.584" r="3.5" transform="rotate(-59.7168 91.5891 130.584)" fill="#025928"/>
<circle cx="106.68" cy="139.396" r="3.5" transform="rotate(-59.7168 106.68 139.396)" fill="#025928"/>
<circle cx="121.772" cy="148.209" r="3.5" transform="rotate(-59.7168 121.772 148.209)" fill="#025928"/>
<circle cx="136.863" cy="157.021" r="3.5" transform="rotate(-59.7168 136.863 157.021)" fill="#025928"/>
<circle cx="151.953" cy="165.834" r="3.5" transform="rotate(-59.7168 151.953 165.834)" fill="#025928"/>
<circle cx="167.044" cy="174.646" r="3.5" transform="rotate(-59.7168 167.044 174.646)" fill="#025928"/>
<circle cx="182.136" cy="183.459" r="3.5" transform="rotate(-59.7168 182.136 183.459)" fill="#025928"/>
<circle cx="197.227" cy="192.271" r="3.5" transform="rotate(-59.7168 197.227 192.271)" fill="#025928"/>
<circle cx="40.0374" cy="80.2426" r="3.5" transform="rotate(-59.7168 40.0374 80.2426)" fill="#025928"/>
<circle cx="55.1292" cy="89.0551" r="3.5" transform="rotate(-59.7168 55.1292 89.0551)" fill="#025928"/>
<circle cx="70.22" cy="97.8676" r="3.5" transform="rotate(-59.7168 70.22 97.8676)" fill="#025928"/>
<circle cx="85.3108" cy="106.68" r="3.5" transform="rotate(-59.7168 85.3108 106.68)" fill="#025928"/>
<circle cx="100.402" cy="115.493" r="3.5" transform="rotate(-59.7168 100.402 115.493)" fill="#025928"/>
<circle cx="115.492" cy="124.306" r="3.5" transform="rotate(-59.7168 115.492 124.306)" fill="#025928"/>
<circle cx="130.584" cy="133.118" r="3.5" transform="rotate(-59.7168 130.584 133.118)" fill="#025928"/>
<circle cx="145.675" cy="141.931" r="3.5" transform="rotate(-59.7168 145.675 141.931)" fill="#025928"/>
<circle cx="160.766" cy="150.743" r="3.5" transform="rotate(-59.7168 160.766 150.743)" fill="#025928"/>
<circle cx="175.857" cy="159.556" r="3.5" transform="rotate(-59.7168 175.857 159.556)" fill="#025928"/>
<circle cx="190.949" cy="168.368" r="3.5" transform="rotate(-59.7168 190.949 168.368)" fill="#025928"/>
<circle cx="206.039" cy="177.181" r="3.5" transform="rotate(-59.7168 206.039 177.181)" fill="#025928"/>
<circle cx="48.8499" cy="65.1517" r="3.5" transform="rotate(-59.7168 48.8499 65.1517)" fill="#025928"/>
<circle cx="63.9417" cy="73.9642" r="3.5" transform="rotate(-59.7168 63.9417 73.9642)" fill="#025928"/>
<circle cx="79.0325" cy="82.7767" r="3.5" transform="rotate(-59.7168 79.0325 82.7767)" fill="#025928"/>
<circle cx="94.1233" cy="91.5892" r="3.5" transform="rotate(-59.7168 94.1233 91.5892)" fill="#025928"/>
<circle cx="109.214" cy="100.402" r="3.5" transform="rotate(-59.7168 109.214 100.402)" fill="#025928"/>
<circle cx="124.305" cy="109.214" r="3.5" transform="rotate(-59.7168 124.305 109.214)" fill="#025928"/>
<circle cx="139.397" cy="118.027" r="3.5" transform="rotate(-59.7168 139.397 118.027)" fill="#025928"/>
<circle cx="154.488" cy="126.839" r="3.5" transform="rotate(-59.7168 154.488 126.839)" fill="#025928"/>
<circle cx="169.578" cy="135.652" r="3.5" transform="rotate(-59.7168 169.578 135.652)" fill="#025928"/>
<circle cx="184.669" cy="144.465" r="3.5" transform="rotate(-59.7168 184.669 144.465)" fill="#025928"/>
<circle cx="199.761" cy="153.277" r="3.5" transform="rotate(-59.7168 199.761 153.277)" fill="#025928"/>
<circle cx="214.852" cy="162.09" r="3.5" transform="rotate(-59.7168 214.852 162.09)" fill="#025928"/>
<circle cx="57.6624" cy="50.0604" r="3.5" transform="rotate(-59.7168 57.6624 50.0604)" fill="#025928"/>
<circle cx="72.7542" cy="58.8729" r="3.5" transform="rotate(-59.7168 72.7542 58.8729)" fill="#025928"/>
<circle cx="87.845" cy="67.6854" r="3.5" transform="rotate(-59.7168 87.845 67.6854)" fill="#025928"/>
<circle cx="102.936" cy="76.4984" r="3.5" transform="rotate(-59.7168 102.936 76.4984)" fill="#025928"/>
<circle cx="118.027" cy="85.3104" r="3.5" transform="rotate(-59.7168 118.027 85.3104)" fill="#025928"/>
<circle cx="133.118" cy="94.1234" r="3.5" transform="rotate(-59.7168 133.118 94.1234)" fill="#025928"/>
<circle cx="148.209" cy="102.936" r="3.5" transform="rotate(-59.7168 148.209 102.936)" fill="#025928"/>
<circle cx="163.3" cy="111.748" r="3.5" transform="rotate(-59.7168 163.3 111.748)" fill="#025928"/>
<circle cx="178.391" cy="120.561" r="3.5" transform="rotate(-59.7168 178.391 120.561)" fill="#025928"/>
<circle cx="193.482" cy="129.373" r="3.5" transform="rotate(-59.7168 193.482 129.373)" fill="#025928"/>
<circle cx="208.574" cy="138.186" r="3.5" transform="rotate(-59.7168 208.574 138.186)" fill="#025928"/>
<circle cx="223.664" cy="146.998" r="3.5" transform="rotate(-59.7168 223.664 146.998)" fill="#025928"/>
<circle cx="66.4749" cy="34.9696" r="3.5" transform="rotate(-59.7168 66.4749 34.9696)" fill="#025928"/>
<circle cx="81.5667" cy="43.7821" r="3.5" transform="rotate(-59.7168 81.5667 43.7821)" fill="#025928"/>
<circle cx="96.6575" cy="52.5946" r="3.5" transform="rotate(-59.7168 96.6575 52.5946)" fill="#025928"/>
<circle cx="111.748" cy="61.4071" r="3.5" transform="rotate(-59.7168 111.748 61.4071)" fill="#025928"/>
<circle cx="126.839" cy="70.2196" r="3.5" transform="rotate(-59.7168 126.839 70.2196)" fill="#025928"/>
<circle cx="141.931" cy="79.0321" r="3.5" transform="rotate(-59.7168 141.931 79.0321)" fill="#025928"/>
<circle cx="157.022" cy="87.8446" r="3.5" transform="rotate(-59.7168 157.022 87.8446)" fill="#025928"/>
<circle cx="172.113" cy="96.6571" r="3.5" transform="rotate(-59.7168 172.113 96.6571)" fill="#025928"/>
<circle cx="187.203" cy="105.47" r="3.5" transform="rotate(-59.7168 187.203 105.47)" fill="#025928"/>
<circle cx="202.294" cy="114.283" r="3.5" transform="rotate(-59.7168 202.294 114.283)" fill="#025928"/>
<circle cx="217.386" cy="123.095" r="3.5" transform="rotate(-59.7168 217.386 123.095)" fill="#025928"/>
<circle cx="232.477" cy="131.908" r="3.5" transform="rotate(-59.7168 232.477 131.908)" fill="#025928"/>
<circle cx="75.2874" cy="19.8783" r="3.5" transform="rotate(-59.7168 75.2874 19.8783)" fill="#025928"/>
<circle cx="90.3792" cy="28.6908" r="3.5" transform="rotate(-59.7168 90.3792 28.6908)" fill="#025928"/>
<circle cx="105.47" cy="37.5033" r="3.5" transform="rotate(-59.7168 105.47 37.5033)" fill="#025928"/>
<circle cx="120.561" cy="46.3158" r="3.5" transform="rotate(-59.7168 120.561 46.3158)" fill="#025928"/>
<circle cx="135.652" cy="55.1283" r="3.5" transform="rotate(-59.7168 135.652 55.1283)" fill="#025928"/>
<circle cx="150.743" cy="63.9413" r="3.5" transform="rotate(-59.7168 150.743 63.9413)" fill="#025928"/>
<circle cx="165.834" cy="72.7538" r="3.5" transform="rotate(-59.7168 165.834 72.7538)" fill="#025928"/>
<circle cx="180.925" cy="81.5663" r="3.5" transform="rotate(-59.7168 180.925 81.5663)" fill="#025928"/>
<circle cx="196.016" cy="90.3788" r="3.5" transform="rotate(-59.7168 196.016 90.3788)" fill="#025928"/>
<circle cx="211.108" cy="99.1913" r="3.5" transform="rotate(-59.7168 211.108 99.1913)" fill="#025928"/>
<circle cx="226.199" cy="108.004" r="3.5" transform="rotate(-59.7168 226.199 108.004)" fill="#025928"/>
<circle cx="241.289" cy="116.816" r="3.5" transform="rotate(-59.7168 241.289 116.816)" fill="#025928"/>
<circle cx="84.0999" cy="4.78748" r="3.5" transform="rotate(-59.7168 84.0999 4.78748)" fill="#025928"/>
<circle cx="99.1917" cy="13.6" r="3.5" transform="rotate(-59.7168 99.1917 13.6)" fill="#025928"/>
<circle cx="114.282" cy="22.4125" r="3.5" transform="rotate(-59.7168 114.282 22.4125)" fill="#025928"/>
<circle cx="129.373" cy="31.225" r="3.5" transform="rotate(-59.7168 129.373 31.225)" fill="#025928"/>
<circle cx="144.464" cy="40.0375" r="3.5" transform="rotate(-59.7168 144.464 40.0375)" fill="#025928"/>
<circle cx="159.556" cy="48.85" r="3.5" transform="rotate(-59.7168 159.556 48.85)" fill="#025928"/>
<circle cx="174.647" cy="57.6625" r="3.5" transform="rotate(-59.7168 174.647 57.6625)" fill="#025928"/>
<circle cx="189.738" cy="66.475" r="3.5" transform="rotate(-59.7168 189.738 66.475)" fill="#025928"/>
<circle cx="204.828" cy="75.288" r="3.5" transform="rotate(-59.7168 204.828 75.288)" fill="#025928"/>
<circle cx="219.92" cy="84.1005" r="3.5" transform="rotate(-59.7168 219.92 84.1005)" fill="#025928"/>
<circle cx="235.011" cy="92.913" r="3.5" transform="rotate(-59.7168 235.011 92.913)" fill="#025928"/>
<circle cx="250.102" cy="101.725" r="3.5" transform="rotate(-59.7168 250.102 101.725)" fill="#025928"/>
</g>
</svg>
