<svg width="74" height="34" viewBox="0 0 74 34" fill="none" xmlns="http://www.w3.org/2000/svg">
<path d="M10.3359 17.7969C10.3359 17.8385 10.3281 17.875 10.3125 17.9062C10.2969 17.9375 10.263 17.9635 10.2109 17.9844C10.1589 18.0052 10.0859 18.0208 9.99219 18.0312C9.89844 18.0417 9.77344 18.0469 9.61719 18.0469C9.48177 18.0469 9.36979 18.0417 9.28125 18.0312C9.19792 18.0208 9.13021 18.0052 9.07812 17.9844C9.02604 17.9583 8.98438 17.9245 8.95312 17.8828C8.92708 17.8411 8.90365 17.7891 8.88281 17.7266L7.95312 15.3438C7.84375 15.0729 7.72917 14.8255 7.60938 14.6016C7.49479 14.3724 7.35677 14.1771 7.19531 14.0156C7.03385 13.849 6.84375 13.7214 6.625 13.6328C6.40625 13.5391 6.14323 13.4922 5.83594 13.4922H4.9375V17.7969C4.9375 17.8385 4.92448 17.875 4.89844 17.9062C4.8776 17.9375 4.84115 17.9635 4.78906 17.9844C4.74219 18 4.67448 18.013 4.58594 18.0234C4.5026 18.0391 4.39583 18.0469 4.26562 18.0469C4.13542 18.0469 4.02604 18.0391 3.9375 18.0234C3.85417 18.013 3.78646 18 3.73438 17.9844C3.68229 17.9635 3.64583 17.9375 3.625 17.9062C3.60417 17.875 3.59375 17.8385 3.59375 17.7969V8.4375C3.59375 8.23438 3.64583 8.09375 3.75 8.01562C3.85938 7.93229 3.97396 7.89062 4.09375 7.89062H6.24219C6.4974 7.89062 6.70833 7.89844 6.875 7.91406C7.04688 7.92448 7.20052 7.9375 7.33594 7.95312C7.72656 8.02083 8.07031 8.1276 8.36719 8.27344C8.66927 8.41927 8.92188 8.60417 9.125 8.82812C9.32812 9.05208 9.47917 9.3099 9.57812 9.60156C9.68229 9.88802 9.73438 10.2057 9.73438 10.5547C9.73438 10.8932 9.6875 11.1979 9.59375 11.4688C9.50521 11.7344 9.375 11.9714 9.20312 12.1797C9.03125 12.3828 8.82552 12.5599 8.58594 12.7109C8.34635 12.862 8.07812 12.9896 7.78125 13.0938C7.94792 13.1667 8.09896 13.2604 8.23438 13.375C8.36979 13.4844 8.49479 13.6172 8.60938 13.7734C8.72917 13.9297 8.84115 14.1094 8.94531 14.3125C9.04948 14.5156 9.15365 14.7448 9.25781 15L10.1641 17.2266C10.237 17.4141 10.2839 17.5469 10.3047 17.625C10.3255 17.6979 10.3359 17.7552 10.3359 17.7969ZM8.3125 10.6953C8.3125 10.2995 8.22396 9.96615 8.04688 9.69531C7.86979 9.41927 7.57292 9.22135 7.15625 9.10156C7.02604 9.0651 6.8776 9.03906 6.71094 9.02344C6.54948 9.00781 6.33594 9 6.07031 9H4.9375V12.4062H6.25C6.60417 12.4062 6.90885 12.3646 7.16406 12.2812C7.42448 12.1927 7.64062 12.0729 7.8125 11.9219C7.98438 11.7656 8.10938 11.5833 8.1875 11.375C8.27083 11.1667 8.3125 10.9401 8.3125 10.6953ZM16.1484 17.7656C16.1276 17.8229 16.099 17.8698 16.0625 17.9062C16.026 17.9427 15.974 17.9714 15.9062 17.9922C15.8438 18.013 15.7604 18.026 15.6562 18.0312C15.5573 18.0417 15.4323 18.0469 15.2812 18.0469C15.1667 18.0469 15.0651 18.0443 14.9766 18.0391C14.8932 18.0391 14.8203 18.0339 14.7578 18.0234C14.6953 18.013 14.6406 18.0026 14.5938 17.9922C14.5521 17.9766 14.5156 17.9583 14.4844 17.9375C14.4531 17.9167 14.4271 17.8932 14.4062 17.8672C14.3906 17.8359 14.375 17.7995 14.3594 17.7578L11.0547 8.36719C11.013 8.2526 10.9896 8.16146 10.9844 8.09375C10.9844 8.02083 11.0078 7.96615 11.0547 7.92969C11.1016 7.89323 11.1771 7.86979 11.2812 7.85938C11.3854 7.84896 11.526 7.84375 11.7031 7.84375C11.849 7.84375 11.9635 7.84896 12.0469 7.85938C12.1354 7.86458 12.2031 7.8776 12.25 7.89844C12.2969 7.91927 12.3307 7.94792 12.3516 7.98438C12.3776 8.01562 12.401 8.05729 12.4219 8.10938L15.3203 16.6172H15.3281L18.1484 8.125C18.1641 8.06771 18.1823 8.02083 18.2031 7.98438C18.224 7.94792 18.2604 7.91927 18.3125 7.89844C18.3646 7.8776 18.4375 7.86458 18.5312 7.85938C18.625 7.84896 18.75 7.84375 18.9062 7.84375C19.0677 7.84375 19.1953 7.85156 19.2891 7.86719C19.3828 7.8776 19.4453 7.90104 19.4766 7.9375C19.513 7.97396 19.526 8.02865 19.5156 8.10156C19.5104 8.16927 19.487 8.26042 19.4453 8.375L16.1484 17.7656ZM20.2812 19.8828C20.2604 19.9505 20.2318 20.0026 20.1953 20.0391C20.1641 20.0807 20.1224 20.112 20.0703 20.1328C20.0182 20.1536 19.9531 20.1693 19.875 20.1797C19.8021 20.1901 19.7109 20.1953 19.6016 20.1953C19.4714 20.1953 19.362 20.1849 19.2734 20.1641C19.1901 20.1484 19.125 20.1224 19.0781 20.0859C19.0312 20.0547 19.0026 20.013 18.9922 19.9609C18.9818 19.9141 18.9922 19.8568 19.0234 19.7891L23.75 6.82812C23.7708 6.76042 23.7969 6.70833 23.8281 6.67188C23.8646 6.63021 23.9062 6.59896 23.9531 6.57812C24.0052 6.55208 24.0703 6.53646 24.1484 6.53125C24.2266 6.52083 24.3203 6.51562 24.4297 6.51562C24.5599 6.51562 24.6667 6.52604 24.75 6.54688C24.8333 6.5625 24.8984 6.58594 24.9453 6.61719C24.9922 6.64844 25.0208 6.6901 25.0312 6.74219C25.0417 6.79427 25.0339 6.85417 25.0078 6.92188L20.2812 19.8828ZM32.8359 8.46875C32.8359 8.56771 32.8307 8.65365 32.8203 8.72656C32.8099 8.79948 32.7917 8.85938 32.7656 8.90625C32.7448 8.94792 32.7161 8.97917 32.6797 9C32.6484 9.02083 32.612 9.03125 32.5703 9.03125H29.7266V17.7969C29.7266 17.8385 29.7161 17.875 29.6953 17.9062C29.6745 17.9375 29.638 17.9635 29.5859 17.9844C29.5339 18 29.4635 18.013 29.375 18.0234C29.2917 18.0391 29.1849 18.0469 29.0547 18.0469C28.9297 18.0469 28.8229 18.0391 28.7344 18.0234C28.6458 18.013 28.5755 18 28.5234 17.9844C28.4714 17.9635 28.4349 17.9375 28.4141 17.9062C28.3932 17.875 28.3828 17.8385 28.3828 17.7969V9.03125H25.5391C25.4974 9.03125 25.4583 9.02083 25.4219 9C25.3906 8.97917 25.3646 8.94792 25.3438 8.90625C25.3229 8.85938 25.3047 8.79948 25.2891 8.72656C25.2786 8.65365 25.2734 8.56771 25.2734 8.46875C25.2734 8.36979 25.2786 8.28385 25.2891 8.21094C25.3047 8.13281 25.3229 8.07031 25.3438 8.02344C25.3646 7.97656 25.3906 7.94271 25.4219 7.92188C25.4583 7.90104 25.4974 7.89062 25.5391 7.89062H32.5703C32.612 7.89062 32.6484 7.90104 32.6797 7.92188C32.7161 7.94271 32.7448 7.97656 32.7656 8.02344C32.7917 8.07031 32.8099 8.13281 32.8203 8.21094C32.8307 8.28385 32.8359 8.36979 32.8359 8.46875ZM37.2578 11.2344C37.2578 11.349 37.2552 11.4453 37.25 11.5234C37.2448 11.6016 37.2344 11.6641 37.2188 11.7109C37.2031 11.7526 37.1823 11.7865 37.1562 11.8125C37.1354 11.8333 37.1042 11.8438 37.0625 11.8438C37.0208 11.8438 36.9688 11.8333 36.9062 11.8125C36.849 11.7865 36.7812 11.763 36.7031 11.7422C36.6302 11.7161 36.5469 11.6927 36.4531 11.6719C36.3594 11.651 36.2578 11.6406 36.1484 11.6406C36.0182 11.6406 35.8906 11.6667 35.7656 11.7188C35.6406 11.7708 35.5078 11.8568 35.3672 11.9766C35.2318 12.0964 35.0885 12.2552 34.9375 12.4531C34.7865 12.651 34.6198 12.8932 34.4375 13.1797V17.8047C34.4375 17.8464 34.4271 17.8828 34.4062 17.9141C34.3854 17.9401 34.3516 17.9635 34.3047 17.9844C34.2578 18.0052 34.1927 18.0208 34.1094 18.0312C34.026 18.0417 33.9193 18.0469 33.7891 18.0469C33.6641 18.0469 33.5599 18.0417 33.4766 18.0312C33.3932 18.0208 33.3255 18.0052 33.2734 17.9844C33.2266 17.9635 33.1927 17.9401 33.1719 17.9141C33.1562 17.8828 33.1484 17.8464 33.1484 17.8047V10.7734C33.1484 10.7318 33.1562 10.6979 33.1719 10.6719C33.1875 10.6406 33.2188 10.6146 33.2656 10.5938C33.3125 10.5677 33.3724 10.5521 33.4453 10.5469C33.5182 10.5365 33.6146 10.5312 33.7344 10.5312C33.849 10.5312 33.9427 10.5365 34.0156 10.5469C34.0938 10.5521 34.1536 10.5677 34.1953 10.5938C34.237 10.6146 34.2656 10.6406 34.2812 10.6719C34.3021 10.6979 34.3125 10.7318 34.3125 10.7734V11.7969C34.5052 11.5156 34.6849 11.2865 34.8516 11.1094C35.0234 10.9323 35.1849 10.7943 35.3359 10.6953C35.487 10.5911 35.6354 10.5208 35.7812 10.4844C35.9323 10.4427 36.0833 10.4219 36.2344 10.4219C36.3021 10.4219 36.3776 10.4271 36.4609 10.4375C36.5495 10.4427 36.6406 10.4557 36.7344 10.4766C36.8281 10.4974 36.9115 10.5208 36.9844 10.5469C37.0625 10.5729 37.1172 10.599 37.1484 10.625C37.1797 10.651 37.2005 10.6771 37.2109 10.7031C37.2214 10.724 37.2292 10.7526 37.2344 10.7891C37.2448 10.8255 37.25 10.8802 37.25 10.9531C37.2552 11.0208 37.2578 11.1146 37.2578 11.2344ZM43.6953 17.8125C43.6953 17.875 43.6745 17.9219 43.6328 17.9531C43.5911 17.9844 43.5339 18.0078 43.4609 18.0234C43.388 18.0391 43.2812 18.0469 43.1406 18.0469C43.0052 18.0469 42.8958 18.0391 42.8125 18.0234C42.7344 18.0078 42.6771 17.9844 42.6406 17.9531C42.6042 17.9219 42.5859 17.875 42.5859 17.8125V17.1094C42.2786 17.4375 41.9349 17.6927 41.5547 17.875C41.1797 18.0573 40.7812 18.1484 40.3594 18.1484C39.9896 18.1484 39.6536 18.099 39.3516 18C39.0547 17.9062 38.7995 17.7682 38.5859 17.5859C38.3776 17.4036 38.2135 17.1797 38.0938 16.9141C37.9792 16.6484 37.9219 16.3464 37.9219 16.0078C37.9219 15.612 38.0026 15.2682 38.1641 14.9766C38.3255 14.6849 38.5573 14.4427 38.8594 14.25C39.1615 14.0573 39.5312 13.9141 39.9688 13.8203C40.4062 13.7214 40.8984 13.6719 41.4453 13.6719H42.4141V13.125C42.4141 12.8542 42.3854 12.6146 42.3281 12.4062C42.2708 12.1979 42.1771 12.026 42.0469 11.8906C41.9219 11.75 41.7578 11.6458 41.5547 11.5781C41.3516 11.5052 41.1016 11.4688 40.8047 11.4688C40.487 11.4688 40.2005 11.5078 39.9453 11.5859C39.6953 11.6589 39.474 11.7422 39.2812 11.8359C39.0938 11.9245 38.9349 12.0078 38.8047 12.0859C38.6797 12.1589 38.5859 12.1953 38.5234 12.1953C38.4818 12.1953 38.4453 12.1849 38.4141 12.1641C38.3828 12.1432 38.3542 12.112 38.3281 12.0703C38.3073 12.0286 38.2917 11.9766 38.2812 11.9141C38.2708 11.8464 38.2656 11.7734 38.2656 11.6953C38.2656 11.5651 38.2734 11.4635 38.2891 11.3906C38.3099 11.3125 38.3542 11.2396 38.4219 11.1719C38.4948 11.1042 38.6172 11.026 38.7891 10.9375C38.9609 10.8438 39.1589 10.7604 39.3828 10.6875C39.6068 10.6094 39.8516 10.5469 40.1172 10.5C40.3828 10.4479 40.651 10.4219 40.9219 10.4219C41.4271 10.4219 41.8568 10.4792 42.2109 10.5938C42.5651 10.7083 42.8516 10.8776 43.0703 11.1016C43.2891 11.3203 43.4479 11.5938 43.5469 11.9219C43.6458 12.25 43.6953 12.6328 43.6953 13.0703V17.8125ZM42.4141 14.6016H41.3125C40.9583 14.6016 40.651 14.6328 40.3906 14.6953C40.1302 14.7526 39.9141 14.8411 39.7422 14.9609C39.5703 15.0755 39.4427 15.2161 39.3594 15.3828C39.2812 15.5443 39.2422 15.7318 39.2422 15.9453C39.2422 16.3099 39.3568 16.6016 39.5859 16.8203C39.8203 17.0339 40.1458 17.1406 40.5625 17.1406C40.901 17.1406 41.2135 17.0547 41.5 16.8828C41.7917 16.7109 42.0964 16.4479 42.4141 16.0938V14.6016ZM47.3594 17.8047C47.3594 17.8464 47.349 17.8828 47.3281 17.9141C47.3073 17.9401 47.2734 17.9635 47.2266 17.9844C47.1797 18.0052 47.1146 18.0208 47.0312 18.0312C46.9479 18.0417 46.8411 18.0469 46.7109 18.0469C46.5859 18.0469 46.4818 18.0417 46.3984 18.0312C46.3151 18.0208 46.2474 18.0052 46.1953 17.9844C46.1484 17.9635 46.1146 17.9401 46.0938 17.9141C46.0781 17.8828 46.0703 17.8464 46.0703 17.8047V10.7734C46.0703 10.737 46.0781 10.7031 46.0938 10.6719C46.1146 10.6406 46.1484 10.6146 46.1953 10.5938C46.2474 10.5729 46.3151 10.5573 46.3984 10.5469C46.4818 10.5365 46.5859 10.5312 46.7109 10.5312C46.8411 10.5312 46.9479 10.5365 47.0312 10.5469C47.1146 10.5573 47.1797 10.5729 47.2266 10.5938C47.2734 10.6146 47.3073 10.6406 47.3281 10.6719C47.349 10.7031 47.3594 10.737 47.3594 10.7734V17.8047ZM47.5078 8.39844C47.5078 8.70052 47.4505 8.90625 47.3359 9.01562C47.2214 9.125 47.0104 9.17969 46.7031 9.17969C46.401 9.17969 46.1927 9.1276 46.0781 9.02344C45.9688 8.91406 45.9141 8.71094 45.9141 8.41406C45.9141 8.11198 45.9714 7.90625 46.0859 7.79688C46.2005 7.6875 46.4115 7.63281 46.7188 7.63281C47.0208 7.63281 47.2266 7.6875 47.3359 7.79688C47.4505 7.90104 47.5078 8.10156 47.5078 8.39844ZM51.0312 17.8047C51.0312 17.8464 51.0208 17.8828 51 17.9141C50.9792 17.9401 50.9453 17.9635 50.8984 17.9844C50.8516 18.0052 50.7865 18.0208 50.7031 18.0312C50.6198 18.0417 50.513 18.0469 50.3828 18.0469C50.2578 18.0469 50.1536 18.0417 50.0703 18.0312C49.987 18.0208 49.9193 18.0052 49.8672 17.9844C49.8203 17.9635 49.7865 17.9401 49.7656 17.9141C49.75 17.8828 49.7422 17.8464 49.7422 17.8047V7.36719C49.7422 7.32552 49.75 7.28906 49.7656 7.25781C49.7865 7.22656 49.8203 7.20052 49.8672 7.17969C49.9193 7.15885 49.987 7.14323 50.0703 7.13281C50.1536 7.1224 50.2578 7.11719 50.3828 7.11719C50.513 7.11719 50.6198 7.1224 50.7031 7.13281C50.7865 7.14323 50.8516 7.15885 50.8984 7.17969C50.9453 7.20052 50.9792 7.22656 51 7.25781C51.0208 7.28906 51.0312 7.32552 51.0312 7.36719V17.8047ZM59.4141 13.9844C59.4141 14.1875 59.362 14.3333 59.2578 14.4219C59.1589 14.5052 59.0443 14.5469 58.9141 14.5469H54.3047C54.3047 14.9375 54.3438 15.2891 54.4219 15.6016C54.5 15.9141 54.6302 16.1823 54.8125 16.4062C54.9948 16.6302 55.2318 16.8021 55.5234 16.9219C55.8151 17.0417 56.1719 17.1016 56.5938 17.1016C56.9271 17.1016 57.224 17.0755 57.4844 17.0234C57.7448 16.9661 57.9688 16.9036 58.1562 16.8359C58.349 16.7682 58.5052 16.7083 58.625 16.6562C58.75 16.599 58.8438 16.5703 58.9062 16.5703C58.9427 16.5703 58.974 16.5807 59 16.6016C59.0312 16.6172 59.0547 16.6432 59.0703 16.6797C59.0859 16.7161 59.0964 16.7682 59.1016 16.8359C59.112 16.8984 59.1172 16.9766 59.1172 17.0703C59.1172 17.138 59.1146 17.1979 59.1094 17.25C59.1042 17.2969 59.0964 17.3411 59.0859 17.3828C59.0807 17.4193 59.0677 17.4531 59.0469 17.4844C59.0312 17.5156 59.0078 17.5469 58.9766 17.5781C58.9505 17.6042 58.8672 17.651 58.7266 17.7188C58.5859 17.7812 58.4036 17.8438 58.1797 17.9062C57.9557 17.9688 57.6953 18.0234 57.3984 18.0703C57.1068 18.1224 56.7943 18.1484 56.4609 18.1484C55.8828 18.1484 55.375 18.0677 54.9375 17.9062C54.5052 17.7448 54.1406 17.5052 53.8438 17.1875C53.5469 16.8698 53.3229 16.4714 53.1719 15.9922C53.0208 15.513 52.9453 14.9557 52.9453 14.3203C52.9453 13.7161 53.0234 13.1745 53.1797 12.6953C53.3359 12.2109 53.5599 11.8021 53.8516 11.4688C54.1484 11.1302 54.5052 10.8724 54.9219 10.6953C55.3385 10.513 55.8047 10.4219 56.3203 10.4219C56.8724 10.4219 57.3411 10.5104 57.7266 10.6875C58.1172 10.8646 58.4375 11.1042 58.6875 11.4062C58.9375 11.7031 59.1198 12.0547 59.2344 12.4609C59.3542 12.862 59.4141 13.2917 59.4141 13.75V13.9844ZM58.1172 13.6016C58.1328 12.9245 57.9818 12.3932 57.6641 12.0078C57.3516 11.6224 56.8854 11.4297 56.2656 11.4297C55.9479 11.4297 55.6693 11.4896 55.4297 11.6094C55.1901 11.7292 54.9896 11.888 54.8281 12.0859C54.6667 12.2839 54.5417 12.5156 54.4531 12.7812C54.3646 13.0417 54.3151 13.3151 54.3047 13.6016H58.1172ZM65.4922 11.2344C65.4922 11.349 65.4896 11.4453 65.4844 11.5234C65.4792 11.6016 65.4688 11.6641 65.4531 11.7109C65.4375 11.7526 65.4167 11.7865 65.3906 11.8125C65.3698 11.8333 65.3385 11.8438 65.2969 11.8438C65.2552 11.8438 65.2031 11.8333 65.1406 11.8125C65.0833 11.7865 65.0156 11.763 64.9375 11.7422C64.8646 11.7161 64.7812 11.6927 64.6875 11.6719C64.5938 11.651 64.4922 11.6406 64.3828 11.6406C64.2526 11.6406 64.125 11.6667 64 11.7188C63.875 11.7708 63.7422 11.8568 63.6016 11.9766C63.4661 12.0964 63.3229 12.2552 63.1719 12.4531C63.0208 12.651 62.8542 12.8932 62.6719 13.1797V17.8047C62.6719 17.8464 62.6615 17.8828 62.6406 17.9141C62.6198 17.9401 62.5859 17.9635 62.5391 17.9844C62.4922 18.0052 62.4271 18.0208 62.3438 18.0312C62.2604 18.0417 62.1536 18.0469 62.0234 18.0469C61.8984 18.0469 61.7943 18.0417 61.7109 18.0312C61.6276 18.0208 61.5599 18.0052 61.5078 17.9844C61.4609 17.9635 61.4271 17.9401 61.4062 17.9141C61.3906 17.8828 61.3828 17.8464 61.3828 17.8047V10.7734C61.3828 10.7318 61.3906 10.6979 61.4062 10.6719C61.4219 10.6406 61.4531 10.6146 61.5 10.5938C61.5469 10.5677 61.6068 10.5521 61.6797 10.5469C61.7526 10.5365 61.849 10.5312 61.9688 10.5312C62.0833 10.5312 62.1771 10.5365 62.25 10.5469C62.3281 10.5521 62.388 10.5677 62.4297 10.5938C62.4714 10.6146 62.5 10.6406 62.5156 10.6719C62.5365 10.6979 62.5469 10.7318 62.5469 10.7734V11.7969C62.7396 11.5156 62.9193 11.2865 63.0859 11.1094C63.2578 10.9323 63.4193 10.7943 63.5703 10.6953C63.7214 10.5911 63.8698 10.5208 64.0156 10.4844C64.1667 10.4427 64.3177 10.4219 64.4688 10.4219C64.5365 10.4219 64.612 10.4271 64.6953 10.4375C64.7839 10.4427 64.875 10.4557 64.9688 10.4766C65.0625 10.4974 65.1458 10.5208 65.2188 10.5469C65.2969 10.5729 65.3516 10.599 65.3828 10.625C65.4141 10.651 65.4349 10.6771 65.4453 10.7031C65.4557 10.724 65.4635 10.7526 65.4688 10.7891C65.4792 10.8255 65.4844 10.8802 65.4844 10.9531C65.4896 11.0208 65.4922 11.1146 65.4922 11.2344ZM71.0938 15.8906C71.0938 16.25 71.026 16.5703 70.8906 16.8516C70.7604 17.1328 70.5729 17.3698 70.3281 17.5625C70.0833 17.7552 69.7917 17.901 69.4531 18C69.1146 18.099 68.7422 18.1484 68.3359 18.1484C68.0859 18.1484 67.8464 18.1276 67.6172 18.0859C67.3932 18.0495 67.1901 18.0026 67.0078 17.9453C66.8307 17.8828 66.6797 17.8203 66.5547 17.7578C66.4297 17.6901 66.3385 17.6302 66.2812 17.5781C66.224 17.526 66.1823 17.4531 66.1562 17.3594C66.1302 17.2656 66.1172 17.138 66.1172 16.9766C66.1172 16.8776 66.1224 16.7943 66.1328 16.7266C66.1432 16.6589 66.1562 16.6042 66.1719 16.5625C66.1875 16.5208 66.2083 16.4922 66.2344 16.4766C66.2656 16.4557 66.2995 16.4453 66.3359 16.4453C66.3932 16.4453 66.4766 16.4818 66.5859 16.5547C66.7005 16.6224 66.8385 16.6979 67 16.7812C67.1667 16.8646 67.362 16.9427 67.5859 17.0156C67.8099 17.0833 68.0677 17.1172 68.3594 17.1172C68.5781 17.1172 68.776 17.0938 68.9531 17.0469C69.1302 17 69.2839 16.9323 69.4141 16.8438C69.5443 16.75 69.6432 16.6328 69.7109 16.4922C69.7839 16.3516 69.8203 16.1849 69.8203 15.9922C69.8203 15.7943 69.7682 15.6276 69.6641 15.4922C69.5651 15.3568 69.4323 15.237 69.2656 15.1328C69.099 15.0286 68.9115 14.9375 68.7031 14.8594C68.4948 14.776 68.2786 14.6901 68.0547 14.6016C67.8359 14.513 67.6198 14.4141 67.4062 14.3047C67.1979 14.1901 67.0104 14.0521 66.8438 13.8906C66.6771 13.7292 66.5417 13.5365 66.4375 13.3125C66.3385 13.0885 66.2891 12.8203 66.2891 12.5078C66.2891 12.2318 66.3411 11.9688 66.4453 11.7188C66.5547 11.4635 66.7161 11.2422 66.9297 11.0547C67.1432 10.862 67.4089 10.7083 67.7266 10.5938C68.0495 10.4792 68.4245 10.4219 68.8516 10.4219C69.0391 10.4219 69.2266 10.4375 69.4141 10.4688C69.6016 10.5 69.7708 10.5391 69.9219 10.5859C70.0729 10.6328 70.2005 10.6849 70.3047 10.7422C70.4141 10.7943 70.4948 10.8411 70.5469 10.8828C70.6042 10.9245 70.6406 10.9609 70.6562 10.9922C70.6771 11.0234 70.6901 11.0599 70.6953 11.1016C70.7057 11.138 70.7135 11.1849 70.7188 11.2422C70.7292 11.2995 70.7344 11.3698 70.7344 11.4531C70.7344 11.5417 70.7292 11.6198 70.7188 11.6875C70.7135 11.75 70.7005 11.8021 70.6797 11.8438C70.6641 11.8854 70.6432 11.9167 70.6172 11.9375C70.5911 11.9531 70.5625 11.9609 70.5312 11.9609C70.4844 11.9609 70.4167 11.9323 70.3281 11.875C70.2396 11.8177 70.125 11.7578 69.9844 11.6953C69.8438 11.6276 69.6771 11.5651 69.4844 11.5078C69.2969 11.4505 69.0807 11.4219 68.8359 11.4219C68.6172 11.4219 68.4245 11.4479 68.2578 11.5C68.0911 11.5469 67.9531 11.6172 67.8438 11.7109C67.7396 11.7995 67.6589 11.9062 67.6016 12.0312C67.5495 12.1562 67.5234 12.2917 67.5234 12.4375C67.5234 12.6406 67.5755 12.8125 67.6797 12.9531C67.7839 13.0885 67.9193 13.2083 68.0859 13.3125C68.2526 13.4167 68.4427 13.5104 68.6562 13.5938C68.8698 13.6771 69.0859 13.763 69.3047 13.8516C69.5286 13.9401 69.7474 14.0391 69.9609 14.1484C70.1797 14.2578 70.3724 14.3906 70.5391 14.5469C70.7057 14.7031 70.8385 14.8906 70.9375 15.1094C71.0417 15.3281 71.0938 15.5885 71.0938 15.8906Z" fill="#D9D9D9"/>
<circle cx="63" cy="21" r="7" fill="white"/>
<path fill-rule="evenodd" clip-rule="evenodd" d="M62.3706 14.0174C59.9345 14.2519 57.7983 15.7193 56.7324 17.8902C56.2932 18.7848 56.0874 19.5491 56.0153 20.5527C55.9494 21.4703 56.0983 22.5215 56.4183 23.3971C56.5658 23.8008 56.9217 24.5023 57.1594 24.8579C57.6779 25.6336 58.3509 26.3096 59.1173 26.8247C60.5363 27.7784 62.3206 28.1787 64.0262 27.9259C65.9983 27.6336 67.7327 26.5212 68.8629 24.8239C69.0818 24.4952 69.4411 23.782 69.5817 23.3971C69.9017 22.5215 70.0506 21.4703 69.9847 20.5527C69.9472 20.0312 69.8975 19.7213 69.7719 19.2278C69.6488 18.7442 69.5236 18.413 69.2664 17.8902C68.9004 17.1465 68.4656 16.5526 67.8532 15.9601C67.2826 15.4082 66.7953 15.0659 66.0786 14.7139C65.3952 14.3782 64.7641 14.1797 64.0262 14.0684C63.6123 14.006 62.7617 13.9798 62.3706 14.0174ZM60.4858 17.2094C60.5619 17.2237 60.7913 17.4392 61.7891 18.4339L63 19.641L64.2109 18.4325C65.3804 17.2653 65.4261 17.2234 65.545 17.206C65.6159 17.1957 65.703 17.2011 65.7503 17.2188C65.8688 17.2632 66.7419 18.1413 66.7788 18.2533C66.7955 18.3038 66.8002 18.3939 66.7897 18.4589C66.7721 18.5672 66.6927 18.6532 65.5635 19.7861L64.356 20.9976L65.5635 22.2091C66.6927 23.3421 66.7721 23.428 66.7897 23.5363C66.8002 23.6014 66.7955 23.6915 66.7788 23.7419C66.7419 23.8539 65.8688 24.7321 65.7503 24.7764C65.703 24.7941 65.6159 24.7995 65.545 24.7892C65.4261 24.7719 65.3804 24.7299 64.2109 23.5627L63 22.3542L61.7891 23.5627C60.6196 24.7299 60.5739 24.7719 60.455 24.7892C60.3841 24.7995 60.297 24.7941 60.2497 24.7764C60.1312 24.7321 59.2581 23.8539 59.2212 23.7419C59.2045 23.6915 59.1998 23.6014 59.2103 23.5363C59.2279 23.428 59.3073 23.3421 60.4365 22.2091L61.644 20.9976L60.4365 19.7861C59.3073 18.6532 59.2279 18.5672 59.2103 18.4589C59.1778 18.2581 59.2203 18.1939 59.7092 17.7064C60.2291 17.1878 60.2612 17.1674 60.4858 17.2094Z" fill="#BD1E2D"/>
</svg>
