<svg width="52" height="52" viewBox="0 0 52 52" fill="none" xmlns="http://www.w3.org/2000/svg">
<path fill-rule="evenodd" clip-rule="evenodd" d="M14.1454 4.65914C11.3398 5.00864 9.18766 6.01058 7.30717 7.84272C6.01107 9.10548 5.14553 10.478 4.55926 12.2002C3.97556 13.9149 4.00015 13.0843 4.00015 31.1027C4.00015 46.7502 4.00608 47.3699 4.1574 47.5037C4.29539 47.6258 4.59193 47.6426 6.58625 47.6416C7.86722 47.6408 8.91408 47.6055 8.98682 47.5605C9.10048 47.4903 9.12111 45.5286 9.16101 31.0241C9.20382 15.4692 9.21483 14.5395 9.36168 14.0629C9.88511 12.3636 11.0238 11.0184 12.5581 10.287C14.8146 9.2113 17.4268 9.60334 19.2999 11.2988L19.8159 11.7658L20.4412 11.3913C20.7852 11.1853 21.7437 10.646 22.5712 10.1928C23.3987 9.73959 24.127 9.32394 24.1896 9.26905C24.282 9.18811 24.2238 9.07598 23.8813 8.67419C21.7357 6.15717 18.8074 4.74732 15.5296 4.65284C14.9339 4.63569 14.3109 4.63846 14.1454 4.65914ZM27.3429 10.783C26.519 10.9603 26.0419 11.1789 23.9235 12.3498C21.4527 13.7154 21.17 13.8976 20.5739 14.5087C19.6253 15.4809 19.0618 16.6339 18.8658 18.0034C18.6874 19.2507 18.9372 20.4304 19.6611 21.7587L20.0224 22.4216L20.4586 22.1778C20.6984 22.0437 23.9117 20.2659 27.5991 18.227C31.2867 16.1882 34.3311 14.4928 34.3646 14.4596C34.4756 14.3493 33.6283 13.0804 33.0604 12.5065C32.171 11.6076 31.1213 11.0402 29.8732 10.7835C29.1388 10.6324 28.0435 10.6323 27.3429 10.783ZM37.2615 15.8081C37.0423 15.9115 32.9654 18.1521 28.2019 20.7873C18.5495 26.1268 19.073 25.7878 19.1503 26.6491C19.1809 26.9896 19.2921 27.2592 19.6337 27.821C20.121 28.6224 20.3683 28.8402 20.9682 28.9972C21.4772 29.1302 21.8922 29.0294 22.7065 28.5745C23.034 28.3915 26.8421 26.2886 31.1689 23.9013C37.1411 20.6061 39.1115 19.4802 39.3501 19.2265C39.7409 18.8109 39.9078 18.2292 39.7736 17.7504C39.7234 17.5715 39.4982 17.1036 39.2731 16.7106C38.9276 16.1075 38.804 15.9666 38.4802 15.807C38.0005 15.5705 37.7648 15.5706 37.2615 15.8081ZM38.8416 24.4432C38.2432 24.7999 38.0515 25.5252 38.4003 26.1133C38.6329 26.5056 39.6825 27.3761 40.059 27.489C40.9899 27.7684 41.9147 26.8885 41.6605 25.9655C41.5956 25.7297 41.4107 25.492 40.9995 25.116C40.6856 24.829 40.3088 24.5225 40.1622 24.4351C39.808 24.224 39.203 24.2277 38.8416 24.4432ZM33.2753 27.5141C33.0862 27.5807 32.9232 27.6358 32.913 27.6365C32.9029 27.6372 32.7965 27.7789 32.6766 27.9514C32.3164 28.4698 32.3681 28.9343 32.8846 29.8166C33.2183 30.3866 33.388 30.587 33.6668 30.7402C34.5205 31.2092 35.5537 30.6003 35.5537 29.6283C35.5537 29.3427 35.1447 28.478 34.7568 27.9431C34.5852 27.7066 34.0022 27.3875 33.7482 27.3911C33.6773 27.3921 33.4645 27.4474 33.2753 27.5141ZM45.3121 28.6909C45.123 28.7574 44.96 28.8126 44.9498 28.8133C44.9397 28.8139 44.8333 28.9556 44.7134 29.1282C44.4697 29.4788 44.4209 30.0527 44.6045 30.4075C44.781 30.7484 46.0253 31.7453 46.396 31.8429C47.3626 32.0974 48.2351 31.1913 47.9426 30.237C47.7828 29.7153 46.2902 28.5607 45.785 28.5679C45.7141 28.5689 45.5013 28.6242 45.3121 28.6909ZM27.4289 30.6937C27.0811 30.851 26.7973 31.166 26.6978 31.5052C26.5838 31.8938 26.8376 33.3647 27.0799 33.7196C27.4027 34.1923 28.1502 34.418 28.6168 34.1838C28.9686 34.007 29.28 33.6563 29.3677 33.3379C29.4674 32.9757 29.2713 31.6469 29.0587 31.245C28.781 30.72 27.9743 30.4471 27.4289 30.6937ZM39.4244 31.9037C38.8401 32.1907 38.5433 33.0147 38.8334 33.5445C39.1174 34.0633 39.8702 34.9395 40.1391 35.0642C40.7921 35.3673 41.4849 35.1444 41.8086 34.5272C42.1405 33.8944 42.068 33.6137 41.3142 32.6158C40.7006 31.8035 40.0938 31.5748 39.4244 31.9037ZM33.4938 35.1707C32.9042 35.6557 32.8418 36.1307 33.2385 37.1128C33.5686 37.93 33.6881 38.1112 34.0323 38.3164C34.6416 38.6796 35.4805 38.4424 35.8244 37.8097C36.0447 37.4045 36.0255 37.1534 35.7133 36.3558C35.2667 35.2142 34.9807 34.9505 34.1889 34.9505C33.8532 34.9505 33.704 34.9978 33.4938 35.1707ZM27.9018 38.2111C27.2237 38.5733 27.0938 39.0912 27.3409 40.447C27.4411 40.9969 27.5099 41.1589 27.7432 41.3943C28.2911 41.9468 29.1064 41.9412 29.6092 41.3813C29.753 41.2212 29.894 40.9664 29.9224 40.8151C29.9995 40.4047 29.7443 38.9057 29.5553 38.658C29.134 38.1064 28.4459 37.9204 27.9018 38.2111Z" fill="#B8B8B8"/>
<circle cx="42" cy="37" r="7" fill="white"/>
<path fill-rule="evenodd" clip-rule="evenodd" d="M41.3706 30.0174C38.9345 30.2519 36.7983 31.7193 35.7324 33.8902C35.2932 34.7848 35.0874 35.5491 35.0153 36.5527C34.9494 37.4703 35.0983 38.5215 35.4183 39.3971C35.5658 39.8008 35.9217 40.5023 36.1594 40.8579C36.6779 41.6336 37.3509 42.3096 38.1173 42.8247C39.5363 43.7784 41.3206 44.1787 43.0262 43.9259C44.9983 43.6336 46.7327 42.5212 47.8629 40.8239C48.0818 40.4952 48.4411 39.782 48.5817 39.3971C48.9017 38.5215 49.0506 37.4703 48.9847 36.5527C48.9472 36.0312 48.8975 35.7213 48.7719 35.2278C48.6488 34.7442 48.5236 34.413 48.2664 33.8902C47.9004 33.1465 47.4656 32.5526 46.8532 31.9601C46.2826 31.4082 45.7953 31.0659 45.0786 30.7139C44.3952 30.3782 43.7641 30.1797 43.0262 30.0684C42.6123 30.006 41.7617 29.9798 41.3706 30.0174ZM39.4858 33.2094C39.5619 33.2237 39.7913 33.4392 40.7891 34.4339L42 35.641L43.2109 34.4325C44.3804 33.2653 44.4261 33.2234 44.545 33.206C44.6159 33.1957 44.703 33.2011 44.7503 33.2188C44.8688 33.2632 45.7419 34.1413 45.7788 34.2533C45.7955 34.3038 45.8002 34.3939 45.7897 34.4589C45.7721 34.5672 45.6927 34.6532 44.5635 35.7861L43.356 36.9976L44.5635 38.2091C45.6927 39.3421 45.7721 39.428 45.7897 39.5363C45.8002 39.6014 45.7955 39.6915 45.7788 39.7419C45.7419 39.8539 44.8688 40.7321 44.7503 40.7764C44.703 40.7941 44.6159 40.7995 44.545 40.7892C44.4261 40.7719 44.3804 40.7299 43.2109 39.5627L42 38.3542L40.7891 39.5627C39.6196 40.7299 39.5739 40.7719 39.455 40.7892C39.3841 40.7995 39.297 40.7941 39.2497 40.7764C39.1312 40.7321 38.2581 39.8539 38.2212 39.7419C38.2045 39.6915 38.1998 39.6014 38.2103 39.5363C38.2279 39.428 38.3073 39.3421 39.4365 38.2091L40.644 36.9976L39.4365 35.7861C38.3073 34.6532 38.2279 34.5672 38.2103 34.4589C38.1778 34.2581 38.2203 34.1939 38.7092 33.7064C39.2291 33.1878 39.2612 33.1674 39.4858 33.2094Z" fill="#BD1E2D"/>
</svg>
